PathFileType	4	(X/Y/Z)	./resultDataOpenSim/trcMotMarkerGrf/sub09/qtm-04-07.trc
DataRate	CameraRate	NumFrames	NumMarkers	Units	OrigDataRate	OrigDataStartFrame	OrigNumFrames
250.000000	250.000000	11	24	m	250.000000	184	488
Frame#	Time	L.Toe.Tip			R.Toe.Tip			L.Ankle.Lat			R.Ankle.Lat			L.Ankle.Med			R.Ankle.Med			L.Heel			R.Heel			L.Knee.Lat			R.Knee.Lat			L.Knee.Med			R.Knee.Med			L.Thigh.Upper			R.Thigh.Upper			L.ASIS			R.ASIS			V.Sacral			L.Acromium			R.Acromium			C7			L.Elbow			R.Elbow			L.Wrist.Lat			R.Wrist.Lat
		X1	Y1	Z1	X2	Y2	Z2	X3	Y3	Z3	X4	Y4	Z4	X5	Y5	Z5	X6	Y6	Z6	X7	Y7	Z7	X8	Y8	Z8	X9	Y9	Z9	X10	Y10	Z10	X11	Y11	Z11	X12	Y12	Z12	X13	Y13	Z13	X14	Y14	Z14	X15	Y15	Z15	X16	Y16	Z16	X17	Y17	Z17	X18	Y18	Z18	X19	Y19	Z19	X20	Y20	Z20	X21	Y21	Z21	X22	Y22	Z22	X23	Y23	Z23	X24	Y24	Z24

184	0.732	0.14277733	-0.03197677	-0.023479611	-0.67127161	0.052106222	0.068747831	-0.0016263759	-0.0010102561	-0.078538256	-0.75010263	0.17906851	0.0997999	0.0076951222	0.017159971	0.018174702	-0.69693929	0.1821686	0.016044741	-0.07609299	-0.0372251	-0.041015993	-0.79556524	0.21127071	0.033812633	0.0048849647	0.41666451	-0.12280035	-0.33781172	0.3933749	0.18726798	-0.012454399	0.41487269	0.0025971332	-0.33933747	0.36487096	0.064790485	-0.19634621	0.78393917	-0.16939905	-0.27796689	0.77760332	0.2010631	-0.13802965	0.86803076	-0.09691655	-0.15800105	0.859743	0.1445133	-0.33411932	0.92426676	0.019757512	-0.18486689	1.3106666	-0.16516157	-0.21215136	1.3309378	0.16655884	-0.26204106	1.3693146	-0.0020549542	-0.36448432	0.99264351	-0.20805601	-0.32124172	0.97130588	0.26161363	-0.28448551	0.74937559	-0.27746174	-0.081045913	0.83120649	0.23703002
185	0.736	0.1435084	-0.032669653	-0.023447844	-0.66810964	0.054115057	0.068992338	-0.00084545636	-0.0010853333	-0.078243558	-0.7417557	0.18435616	0.10043621	0.0085745291	0.01684498	0.018542668	-0.68785765	0.185596	0.01727804	-0.075465227	-0.037221133	-0.040995657	-0.78543541	0.21828785	0.034361801	0.012696066	0.41595152	-0.12326058	-0.32800616	0.391675	0.18884803	-0.0040508626	0.41582729	0.0023100036	-0.3269018	0.36165396	0.066061943	-0.19058179	0.78399234	-0.17070784	-0.27113076	0.77590309	0.20074829	-0.13150919	0.86813958	-0.098092295	-0.15123249	0.85851467	0.14344961	-0.3201071	0.92033318	0.015349418	-0.17730654	1.309932	-0.16523839	-0.20435302	1.3300633	0.16644891	-0.25455721	1.3684328	-0.0022370396	-0.35650047	0.99179702	-0.20841522	-0.31568268	0.97109492	0.26029102	-0.27604708	0.74854451	-0.27782951	-0.077434087	0.82811518	0.23762812
186	0.74	0.14405051	-0.033271671	-0.023459284	-0.66459213	0.056142062	0.069310069	-0.00015684815	-0.0012779303	-0.078083311	-0.73280729	0.18953609	0.10117607	0.0093252559	0.016497518	0.01882901	-0.67839061	0.188959	0.018502032	-0.075054951	-0.03709214	-0.04109489	-0.77486095	0.2252681	0.035174151	0.019760079	0.41478601	-0.12356496	-0.31752577	0.38984726	0.19047384	0.00386982	0.41629336	0.0019080597	-0.314521	0.35864966	0.067199941	-0.18474466	0.78393454	-0.17203234	-0.26418097	0.77430196	0.20020255	-0.1250671	0.86826123	-0.099284177	-0.14458089	0.85738676	0.14239015	-0.30594226	0.91667191	0.01114506	-0.16982081	1.3093171	-0.16530338	-0.19651745	1.3292589	0.1663738	-0.24712266	1.3675861	-0.0023996468	-0.34846866	0.9909869	-0.2088088	-0.30992627	0.97096	0.25885773	-0.26751334	0.74778371	-0.27812621	-0.073885077	0.82509384	0.23824478
187	0.744	0.14433427	-0.033716718	-0.023362135	-0.66072821	0.058134185	0.069777959	0.00029856129	-0.0015408523	-0.078014492	-0.72319948	0.19461644	0.10209702	0.009722419	0.016180715	0.019048408	-0.66851534	0.19224838	0.019689869	-0.074891353	-0.036966293	-0.041250478	-0.76391518	0.23218332	0.036235862	0.026105894	0.41334552	-0.1238131	-0.30625968	0.38798144	0.1920933	0.011272651	0.416239	0.0014468154	-0.30211405	0.35590065	0.068383152	-0.17879864	0.78378166	-0.17329314	-0.25706246	0.77276271	0.19940479	-0.11868896	0.86837105	-0.10044589	-0.13805193	0.85636054	0.14135957	-0.2947293	0.91434463	0.0087778805	-0.1624162	1.3088241	-0.16535582	-0.1886809	1.3285328	0.16632489	-0.23984393	1.3668715	-0.0024628694	-0.3403866	0.9902159	-0.20928564	-0.30423345	0.97094716	0.25753882	-0.25887873	0.74708831	-0.27837519	-0.070417648	0.82212696	0.23886583
188	0.748	0.14442063	-0.034019603	-0.023139774	-0.65655944	0.06006641	0.070509321	0.00052595054	-0.0018330989	-0.077954381	-0.71295201	0.19959802	0.10324695	0.0097591397	0.015917088	0.019244563	-0.65822568	0.1954876	0.020821158	-0.074884331	-0.036928012	-0.041396427	-0.75257158	0.23889898	0.037425771	0.031770845	0.4118765	-0.12418696	-0.29448125	0.38622259	0.19367237	0.01825265	0.41568529	0.0010114066	-0.28959232	0.35344676	0.069633691	-0.17275842	0.7835408	-0.17439976	-0.24976771	0.77124324	0.19835529	-0.1123138	0.86845405	-0.1015166	-0.13164266	0.85543685	0.14038613	-0.28736976	0.91339854	0.008028485	-0.1550893	1.3084498	-0.16539488	-0.18088062	1.3278885	0.16629829	-0.2327023	1.3663606	-0.0024382161	-0.33227526	0.98949756	-0.20981132	-0.29877222	0.97109187	0.25648813	-0.25012958	0.74645385	-0.27858502	-0.067059162	0.81920515	0.23948011
189	0.752	0.14442534	-0.034238237	-0.022869366	-0.65206383	0.061951964	0.071540416	0.00063352464	-0.0021273079	-0.077845911	-0.7021785	0.20444786	0.10461874	0.0096184126	0.015695215	0.019446241	-0.64751763	0.19873165	0.021877628	-0.074919248	-0.036960612	-0.041481313	-0.74072623	0.24522552	0.038594015	0.036837808	0.41052326	-0.12476245	-0.28256004	0.3846652	0.19515758	0.024795192	0.41466286	0.00059058926	-0.27699384	0.35128688	0.070834715	-0.16663805	0.78321325	-0.17529398	-0.242385	0.76974176	0.19713173	-0.10589983	0.86850136	-0.10245289	-0.12534122	0.85461755	0.13948977	-0.28252944	0.9130815	0.0072753609	-0.14782881	1.3081854	-0.16542006	-0.17314992	1.3273273	0.16629248	-0.22561712	1.366047	-0.0023889465	-0.32419928	0.98883684	-0.21026152	-0.29347441	0.97137471	0.25567236	-0.24125849	0.74588169	-0.27874132	-0.063827692	0.81632592	0.24007863
190	0.756	0.14443758	-0.034409578	-0.022654187	-0.64708738	0.063851716	0.072765233	0.00074576706	-0.0023940134	-0.07769857	-0.69106345	0.20908681	0.10616077	0.0095423068	0.015501309	0.019638313	-0.63642178	0.20200743	0.02284948	-0.07492748	-0.036987234	-0.041489601	-0.72836552	0.25111434	0.039704864	0.041484603	0.40927869	-0.12544916	-0.27082611	0.38333518	0.19647273	0.030781901	0.41323323	0.00010392968	-0.26443572	0.34939412	0.07185977	-0.16044052	0.7828092	-0.1759762	-0.23512594	0.76832715	0.19591559	-0.099459078	0.86851534	-0.10324922	-0.11913747	0.85391245	0.13868151	-0.27849398	0.91275474	0.0052795841	-0.14062953	1.3080237	-0.16543334	-0.16551941	1.326855	0.16630656	-0.21853599	1.3658912	-0.0023560691	-0.31620693	0.98822675	-0.21058448	-0.28819465	0.97175328	0.25498991	-0.23227374	0.74538168	-0.2788221	-0.060721775	0.81349165	0.24065756
191	0.76	0.14448757	-0.034537493	-0.02254899	-0.64142127	0.065833705	0.074071013	0.00094311149	-0.0026113117	-0.077563255	-0.67977179	0.21344934	0.10776332	0.0096653598	0.015330042	0.019786379	-0.62506411	0.20527201	0.023741032	-0.074897729	-0.036950802	-0.041448427	-0.7156321	0.25671462	0.040848681	0.045916847	0.4080746	-0.12609039	-0.25946541	0.38222636	0.19756542	0.036190103	0.41154314	-0.0004713629	-0.25197569	0.34778013	0.07264482	-0.15416984	0.78236608	-0.1764981	-0.22815399	0.76710763	0.19483533	-0.093026916	0.86851715	-0.10392469	-0.11302701	0.85334289	0.13796748	-0.27422843	0.91232178	0.0023221606	-0.13349525	1.3079652	-0.16544137	-0.15802194	1.3264821	0.1663396	-0.21144693	1.3658677	-0.0023468244	-0.30827101	0.98766131	-0.21087716	-0.28285812	0.97220195	0.2543926	-0.22319184	0.7449692	-0.27881015	-0.05770829	0.81071349	0.24122227
192	0.764	0.14456204	-0.034618859	-0.022536989	-0.63492828	0.067938062	0.075456385	0.0012442133	-0.0027778059	-0.077486072	-0.66837693	0.21756422	0.10918658	0.0099474573	0.015181419	0.019873974	-0.61357739	0.20844839	0.024564917	-0.07485201	-0.036855972	-0.041406508	-0.70270269	0.26219651	0.042098964	0.050232032	0.40688107	-0.12657812	-0.24847747	0.38132442	0.19842663	0.041152461	0.40981162	-0.0010624961	-0.23956453	0.3465031	0.073167417	-0.14783541	0.7819542	-0.17692691	-0.22134828	0.76617927	0.19376171	-0.086633837	0.86853765	-0.10450302	-0.10700903	0.85293462	0.13734879	-0.26917404	0.91192719	-0.0003555864	-0.12642484	1.3080152	-0.1654508	-0.15068801	1.326221	0.1663865	-0.20436022	1.3659676	-0.0023560269	-0.30033075	0.987143	-0.21124312	-0.2774458	0.97271494	0.25388362	-0.2140234	0.74465975	-0.2786996	-0.054730263	0.8080121	0.24178512
193	0.768	0.14463364	-0.03466517	-0.022570301	-0.62753394	0.070201205	0.076961312	0.0016128068	-0.0029080361	-0.077483082	-0.6568676	0.22154029	0.11010647	0.010258926	0.01505874	0.019907264	-0.60197772	0.21151796	0.025305032	-0.07481734	-0.036747576	-0.041402079	-0.68968841	0.26758713	0.043400864	0.054362961	0.40573121	-0.12688109	-0.2377272	0.38060967	0.19906831	0.045804985	0.40824007	-0.0015844579	-0.2271167	0.34561146	0.07342078	-0.14143809	0.7816578	-0.17731419	-0.21438215	0.76559802	0.19239256	-0.080294422	0.86859894	-0.10500093	-0.10108439	0.85270363	0.13682193	-0.26315262	0.91169098	-0.0019156365	-0.11940378	1.3081736	-0.16545899	-0.14353641	1.3260815	0.16643771	-0.19730189	1.3661841	-0.0023821245	-0.29236863	0.98668207	-0.21168296	-0.27192829	0.97329256	0.2534685	-0.20477182	0.74446525	-0.27849814	-0.051746693	0.80540778	0.24235727
194	0.772	0.14467939	-0.034702652	-0.022608468	-0.61910807	0.072686989	0.078597478	0.0019689052	-0.0030319785	-0.077537429	-0.6451752	0.22545364	0.11039199	0.010501483	0.014966583	0.019900583	-0.5902194	0.21456659	0.025892009	-0.074809698	-0.036661935	-0.041444342	-0.67663663	0.27275022	0.044600296	0.058150975	0.40468832	-0.12699996	-0.22702558	0.38005724	0.19950209	0.050166763	0.40694235	-0.0020083781	-0.21462334	0.34511518	0.073442179	-0.13496462	0.78154917	-0.17768511	-0.20715735	0.76534118	0.19067178	-0.073991304	0.86871413	-0.10541735	-0.09525336	0.85264778	0.13638092	-0.25644315	0.91173916	-0.0024964381	-0.11241426	1.308433	-0.1654533	-0.13657835	1.3260689	0.1664878	-0.19031041	1.3665122	-0.0024293186	-0.28442499	0.98629807	-0.21215252	-0.26624533	0.97393332	0.25313027	-0.1954421	0.74439287	-0.27821629	-0.048759576	0.80290958	0.2429459
